<mxfile host="app.diagrams.net" modified="2023-10-14T16:21:55.138Z" agent="Mozilla/5.0 (Windows NT 10.0; Win64; x64) AppleWebKit/537.36 (KHTML, like Gecko) Chrome/116.0.0.0 Safari/537.36 OPR/102.0.0.0" etag="MnjZoTX5I-BMuXDl8mxC" version="21.6.1" type="device">
  <diagram name="Pagina-1" id="wN6YJSM4o66fR8LFv3Vh">
    <mxGraphModel dx="1945" dy="2311" grid="1" gridSize="10" guides="1" tooltips="1" connect="1" arrows="1" fold="1" page="1" pageScale="1" pageWidth="827" pageHeight="1169" math="0" shadow="0">
      <root>
        <mxCell id="0" />
        <mxCell id="1" parent="0" />
        <mxCell id="5UGKIeRZJDmRClwh3Alo-3" value="&lt;font style=&quot;font-size: 18px;&quot;&gt;Kawaii Comix&lt;/font&gt;" style="swimlane;whiteSpace=wrap;html=1;startSize=80;fillColor=#FF6F88;align=left;strokeColor=#CCFFFF;" parent="1" vertex="1">
          <mxGeometry x="-680" y="-840" width="1020" height="644" as="geometry" />
        </mxCell>
        <mxCell id="5UGKIeRZJDmRClwh3Alo-8" value="" style="whiteSpace=wrap;html=1;fillColor=#CCFFFF;align=left;" parent="5UGKIeRZJDmRClwh3Alo-3" vertex="1">
          <mxGeometry y="80" width="1020" height="520" as="geometry" />
        </mxCell>
        <mxCell id="5UGKIeRZJDmRClwh3Alo-9" value="Home" style="rounded=1;whiteSpace=wrap;html=1;fillColor=#FFCCCC;" parent="5UGKIeRZJDmRClwh3Alo-3" vertex="1">
          <mxGeometry x="560" y="20" width="80" height="40" as="geometry" />
        </mxCell>
        <mxCell id="5UGKIeRZJDmRClwh3Alo-10" value="Catalogo" style="rounded=1;whiteSpace=wrap;html=1;fillColor=#FFCCCC;" parent="5UGKIeRZJDmRClwh3Alo-3" vertex="1">
          <mxGeometry x="650" y="20" width="80" height="40" as="geometry" />
        </mxCell>
        <mxCell id="5UGKIeRZJDmRClwh3Alo-11" value="Ricerca" style="rounded=1;whiteSpace=wrap;html=1;fillColor=#FFCCCC;" parent="5UGKIeRZJDmRClwh3Alo-3" vertex="1">
          <mxGeometry x="740" y="20" width="80" height="40" as="geometry" />
        </mxCell>
        <mxCell id="5UGKIeRZJDmRClwh3Alo-12" value="Area Utente" style="rounded=1;whiteSpace=wrap;html=1;fillColor=#FFCCCC;" parent="5UGKIeRZJDmRClwh3Alo-3" vertex="1">
          <mxGeometry x="830" y="20" width="80" height="40" as="geometry" />
        </mxCell>
        <mxCell id="5UGKIeRZJDmRClwh3Alo-13" value="Carrello" style="rounded=1;whiteSpace=wrap;html=1;fillColor=#FFCCCC;" parent="5UGKIeRZJDmRClwh3Alo-3" vertex="1">
          <mxGeometry x="920" y="20" width="80" height="40" as="geometry" />
        </mxCell>
        <mxCell id="5UGKIeRZJDmRClwh3Alo-15" value="" style="rounded=0;whiteSpace=wrap;html=1;fillColor=#FFFFFF;" parent="5UGKIeRZJDmRClwh3Alo-3" vertex="1">
          <mxGeometry x="100" y="160" width="830" height="230" as="geometry" />
        </mxCell>
        <mxCell id="5UGKIeRZJDmRClwh3Alo-34" value="&lt;font size=&quot;3&quot;&gt;&lt;b&gt;Elimina&lt;span style=&quot;white-space: pre;&quot;&gt;&#x9;&lt;/span&gt;&lt;span style=&quot;white-space: pre;&quot;&gt;&#x9;&lt;/span&gt;Immagine&lt;span style=&quot;white-space: pre;&quot;&gt;&#x9;&lt;span style=&quot;white-space: pre;&quot;&gt;&#x9;&lt;span style=&quot;white-space: pre;&quot;&gt;&#x9;&lt;/span&gt;&lt;/span&gt;&lt;/span&gt;Nome&lt;span style=&quot;white-space: pre;&quot;&gt;&#x9;&lt;span style=&quot;white-space: pre;&quot;&gt;&#x9;&lt;/span&gt;&lt;span style=&quot;white-space: pre;&quot;&gt;&#x9;&lt;/span&gt;&lt;/span&gt;Prezzo&lt;span style=&quot;white-space: pre;&quot;&gt;&#x9;&lt;span style=&quot;white-space: pre;&quot;&gt;&#x9;&lt;/span&gt;&lt;span style=&quot;white-space: pre;&quot;&gt;&#x9;&lt;/span&gt;&lt;/span&gt;Quantità&lt;span style=&quot;white-space: pre;&quot;&gt;&#x9;&lt;span style=&quot;white-space: pre;&quot;&gt;&#x9;&lt;/span&gt;&lt;span style=&quot;white-space: pre;&quot;&gt;&#x9;&lt;/span&gt;&lt;/span&gt;Totale&lt;/b&gt;&lt;/font&gt;" style="rounded=0;whiteSpace=wrap;html=1;strokeColor=#000000;fillColor=none;" parent="5UGKIeRZJDmRClwh3Alo-3" vertex="1">
          <mxGeometry x="100" y="160" width="830" height="50" as="geometry" />
        </mxCell>
        <mxCell id="hitIeefIt-lWrOTmFTHB-12" value="&lt;font size=&quot;3&quot;&gt;&lt;b&gt;Immagine&lt;/b&gt;&lt;/font&gt;" style="rounded=0;whiteSpace=wrap;html=1;fillColor=#66B2FF;" vertex="1" parent="5UGKIeRZJDmRClwh3Alo-3">
          <mxGeometry x="240" y="240" width="120" height="110" as="geometry" />
        </mxCell>
        <mxCell id="hitIeefIt-lWrOTmFTHB-26" value="&lt;font size=&quot;3&quot;&gt;&lt;b&gt;Nome Prodotto&lt;/b&gt;&lt;/font&gt;" style="rounded=0;whiteSpace=wrap;html=1;fillColor=none;" vertex="1" parent="5UGKIeRZJDmRClwh3Alo-3">
          <mxGeometry x="390" y="262" width="120" height="40" as="geometry" />
        </mxCell>
        <mxCell id="hitIeefIt-lWrOTmFTHB-27" value="&lt;font size=&quot;3&quot;&gt;&lt;b&gt;Totale&lt;/b&gt;&lt;br&gt;Costo dei prodotti&lt;br&gt;Costo della Spedizione&lt;br&gt;Prezzo Totale&lt;br&gt;&lt;br&gt;&lt;br&gt;&lt;br&gt;&lt;/font&gt;" style="rounded=0;whiteSpace=wrap;html=1;fillColor=#FFFFFF;align=left;" vertex="1" parent="5UGKIeRZJDmRClwh3Alo-3">
          <mxGeometry x="700" y="420" width="230" height="160" as="geometry" />
        </mxCell>
        <mxCell id="hitIeefIt-lWrOTmFTHB-30" value="&lt;font size=&quot;3&quot;&gt;&lt;b&gt;Prezzo&lt;/b&gt;&lt;/font&gt;" style="rounded=0;whiteSpace=wrap;html=1;fillColor=none;" vertex="1" parent="5UGKIeRZJDmRClwh3Alo-3">
          <mxGeometry x="555" y="262" width="70" height="42" as="geometry" />
        </mxCell>
        <mxCell id="hitIeefIt-lWrOTmFTHB-63" value="&lt;font size=&quot;3&quot;&gt;&lt;b&gt;Quantità&lt;/b&gt;&lt;/font&gt;" style="rounded=0;whiteSpace=wrap;html=1;fillColor=none;" vertex="1" parent="5UGKIeRZJDmRClwh3Alo-3">
          <mxGeometry x="705" y="262" width="70" height="42" as="geometry" />
        </mxCell>
        <mxCell id="hitIeefIt-lWrOTmFTHB-64" style="edgeStyle=orthogonalEdgeStyle;rounded=0;orthogonalLoop=1;jettySize=auto;html=1;exitX=0.5;exitY=1;exitDx=0;exitDy=0;" edge="1" parent="5UGKIeRZJDmRClwh3Alo-3" source="hitIeefIt-lWrOTmFTHB-26" target="hitIeefIt-lWrOTmFTHB-26">
          <mxGeometry relative="1" as="geometry" />
        </mxCell>
        <mxCell id="hitIeefIt-lWrOTmFTHB-82" value="&lt;font size=&quot;3&quot;&gt;&lt;b&gt;Totale Parziale&lt;/b&gt;&lt;/font&gt;" style="rounded=0;whiteSpace=wrap;html=1;fillColor=none;" vertex="1" parent="5UGKIeRZJDmRClwh3Alo-3">
          <mxGeometry x="835" y="262" width="70" height="42" as="geometry" />
        </mxCell>
        <mxCell id="hitIeefIt-lWrOTmFTHB-83" value="&lt;font size=&quot;3&quot;&gt;&lt;b&gt;Elimina Row&lt;/b&gt;&lt;/font&gt;" style="rounded=0;whiteSpace=wrap;html=1;fillColor=none;" vertex="1" parent="5UGKIeRZJDmRClwh3Alo-3">
          <mxGeometry x="120" y="260" width="90" height="44" as="geometry" />
        </mxCell>
        <mxCell id="hitIeefIt-lWrOTmFTHB-84" value="Procedi al Pagamento" style="rounded=1;whiteSpace=wrap;html=1;fillColor=#FFCCCC;" vertex="1" parent="5UGKIeRZJDmRClwh3Alo-3">
          <mxGeometry x="710" y="530" width="210" height="40" as="geometry" />
        </mxCell>
        <mxCell id="5UGKIeRZJDmRClwh3Alo-4" value="" style="endArrow=none;html=1;rounded=0;" parent="1" edge="1">
          <mxGeometry width="50" height="50" relative="1" as="geometry">
            <mxPoint x="-680" y="-240" as="sourcePoint" />
            <mxPoint x="320" y="-240" as="targetPoint" />
          </mxGeometry>
        </mxCell>
        <mxCell id="5UGKIeRZJDmRClwh3Alo-5" value="&lt;font size=&quot;3&quot;&gt;Footer&lt;/font&gt;" style="whiteSpace=wrap;html=1;fillColor=#B3B3B3;" parent="1" vertex="1">
          <mxGeometry x="-680" y="-240" width="1020" height="60" as="geometry" />
        </mxCell>
      </root>
    </mxGraphModel>
  </diagram>
</mxfile>
